<?xml version="1.0" encoding="utf-8"?>
<!-- Generator: Adobe Illustrator 16.0.4, SVG Export Plug-In . SVG Version: 6.00 Build 0)  -->
<!DOCTYPE svg PUBLIC "-//W3C//DTD SVG 1.1//EN" "http://www.w3.org/Graphics/SVG/1.1/DTD/svg11.dtd">
<svg version="1.1" id="Calque_1" xmlns="http://www.w3.org/2000/svg" xmlns:xlink="http://www.w3.org/1999/xlink" x="0px" y="0px"
	 width="154.35px" height="28.989px" viewBox="0 0 154.35 28.989" enable-background="new 0 0 154.35 28.989" xml:space="preserve">
<g id="Line-Q_2_">
	<path fill="#1F1E21" d="M48.681,3.185h1.654v12.884h-1.654V3.185z M79.483,16.068h9.873v-1.129h-8.135V9.767h7.288V8.64h-7.288
		V4.313h7.945v-1.13h-9.684V16.068z M90.73,16.068h1.361V5.3h0.236l8.418,10.769h1.525V3.185h-1.363V13.28h-0.25L92.773,3.185H90.73
		V16.068z M76.243,3.668c-2.472-1.309-6.84-1.415-8.632,0.563c-0.713,0.787-0.713,2.797-0.43,3.564
		c1.066,2.469,5.582,1.855,8.123,2.728c0.652,0.221,0.846,0.753,0.92,1.409c0.07,0.867,0.035,1.48-0.545,2.134
		c-1.241,1.317-4.006,1.214-5.746,0.412c-1.098-0.535-1.319-1.704-1.392-2.865l-1.685-0.023c-0.1,0.71,0.057,1.635,0.459,2.41
		c0.727,1.402,3.474,2.044,5.288,2.068c2.206-0.024,4.511-0.402,5.259-2.24c0.373-1.206,0.267-3.319-0.666-4.131
		c-1.342-1.174-5.835-0.805-7.405-1.605c-0.71-0.329-1.071-0.705-1.126-1.824c0-1.079,0.406-1.809,1.278-2.242
		C71.47,3.374,73.5,3.449,74.949,4.18c1.171,0.664,1.066,1.715,1.139,2.733c0.617,0,1.006-0.006,1.549-0.006
		c0,0-0.045-1.5-0.193-1.965C77.328,4.572,77.077,4.109,76.243,3.668z M113.057,3.668c-2.472-1.309-6.841-1.415-8.633,0.563
		c-0.711,0.787-0.711,2.797-0.43,3.564c1.066,2.469,5.584,1.855,8.125,2.728c0.649,0.221,0.846,0.753,0.92,1.409
		c0.07,0.867,0.033,1.48-0.546,2.134c-1.241,1.317-4.005,1.214-5.746,0.412c-1.097-0.535-1.32-1.704-1.391-2.865l-1.686-0.023
		c-0.101,0.71,0.058,1.635,0.459,2.41c0.728,1.402,3.474,2.044,5.288,2.068c2.207-0.024,4.512-0.402,5.258-2.24
		c0.375-1.206,0.27-3.319-0.666-4.131c-1.341-1.174-5.833-0.805-7.403-1.605c-0.712-0.329-1.071-0.705-1.128-1.824
		c0-1.079,0.407-1.809,1.279-2.242c1.523-0.651,3.557-0.576,5.006,0.154c1.17,0.664,1.065,1.715,1.139,2.733
		c0.616,0,1.005-0.006,1.547-0.006c0,0-0.044-1.5-0.192-1.965C114.142,4.572,113.891,4.109,113.057,3.668z M152.528,3.668
		c-2.47-1.309-6.84-1.415-8.632,0.563c-0.711,0.787-0.711,2.797-0.43,3.564c1.066,2.469,5.584,1.855,8.125,2.728
		c0.648,0.221,0.846,0.753,0.92,1.409c0.068,0.867,0.033,1.48-0.547,2.134c-1.24,1.317-4.004,1.214-5.746,0.412
		c-1.096-0.535-1.319-1.704-1.391-2.865l-1.686-0.023c-0.1,0.71,0.059,1.635,0.461,2.41c0.727,1.402,3.473,2.044,5.288,2.068
		c2.207-0.024,4.509-0.402,5.257-2.24c0.374-1.206,0.269-3.319-0.666-4.131c-1.343-1.174-5.832-0.805-7.404-1.605
		c-0.711-0.329-1.07-0.705-1.127-1.824c0-1.079,0.406-1.809,1.279-2.242c1.524-0.651,3.557-0.576,5.006,0.154
		c1.17,0.664,1.064,1.715,1.138,2.733c0.618,0,1.005-0.006,1.549-0.006c0,0-0.044-1.5-0.192-1.965
		C153.613,4.572,153.363,4.109,152.528,3.668z M60.703,16.068h-3.337c-2.658,0-4.812-2.154-4.812-4.812V7.917
		c0-2.656,2.154-4.814,4.812-4.814h3.337c2.658,0,4.814,2.158,4.814,4.814v3.339C65.518,13.914,63.361,16.068,60.703,16.068z
		 M63.557,7.438c0-1.897-1.539-3.439-3.438-3.439h-2.168c-1.898,0-3.438,1.542-3.438,3.439v4.299c0,1.9,1.539,3.44,3.438,3.44h2.168
		c1.898,0,3.438-1.54,3.438-3.44V7.438z M124.27,16.068h-3.337c-2.657,0-4.813-2.154-4.813-4.812V7.917
		c0-2.656,2.156-4.814,4.813-4.814h3.337c2.658,0,4.812,2.158,4.812,4.814v3.339C129.082,13.914,126.928,16.068,124.27,16.068z
		 M127.123,7.438c0-1.897-1.539-3.439-3.438-3.439h-2.168c-1.898,0-3.438,1.542-3.438,3.439v4.299c0,1.9,1.539,3.44,3.438,3.44
		h2.168c1.898,0,3.438-1.54,3.438-3.44V7.438z M46.498,11.161c0.664,1.226,0.385,2.621-0.23,3.535
		c-0.688,1.019-1.977,1.299-3.438,1.372l-7.396-0.001l0.003-12.858l6.417,0.003c1.765-0.011,2.454,0.199,3.222,0.723
		c1.249,0.853,0.994,2.579,0.899,3.613c-0.184,1.534-2.726,1.737-2.71,1.804C43.325,9.387,45.772,9.828,46.498,11.161z
		 M44.115,6.237c0.018-0.64-0.263-2.011-2.154-2.011c-1.824,0.009-2.74,0.009-4.785,0l0.008,4.592l4.573,0.013
		C43.922,8.831,44.115,7.152,44.115,6.237z M44.71,11.78c-0.562-1.797-2.269-1.716-3.776-1.71l-3.758-0.01l-0.011,5.01l4.552,0.014
		c1.854,0,2.168-0.385,2.52-0.691C44.84,13.716,45.003,12.717,44.71,11.78z M140.729,9.342c-0.783,0.477-1.895,0.501-1.895,0.501
		s2.902,0.463,2.88,3.214v3.012h-1.692v-2.87c0-0.639-0.307-1.834-1.975-2.459c-0.797-0.3-1.832-0.315-1.832-0.315h-3.764v5.645
		h-1.738V3.185h6.724c1.268,0,4.288,0.189,4.42,3.103C141.959,8.567,141.251,9.022,140.729,9.342z M136.729,4.124h-4.278v5.218
		h3.574c1.694,0,3.95-0.187,3.95-2.539C139.976,4.124,137.578,4.124,136.729,4.124z M35.433,25.733h0.827v-6.444h-0.827V25.733z
		 M80.355,25.733h0.826v-6.444h-0.826V25.733z M102.881,25.733h4.607v-0.519h-3.738V19.29h-0.869V25.733z M43.723,19.808h2.494
		v5.926h0.869v-5.926h2.491V19.29h-5.854V19.808z M73.735,19.808h2.491v5.926h0.869v-5.926h2.493V19.29h-5.854V19.808z
		 M50.072,25.733h4.936v-0.565h-4.066v-2.584h3.645V22.02h-3.645v-2.165h3.973V19.29h-4.842V25.733z M89.596,25.733h0.682v-5.385
		h0.117l4.207,5.385h0.764V19.29h-0.682v5.049h-0.123l-3.945-5.049h-1.02V25.733z M62.393,25.733h0.682v-5.385h0.117l4.207,5.385
		h0.766V19.29h-0.682v5.049h-0.125l-3.943-5.049h-1.021V25.733z M37.412,25.733h0.682v-5.385h0.118l4.208,5.385h0.763V19.29h-0.681
		v5.049h-0.125l-3.941-5.049h-1.023V25.733z M60.81,22.369c-0.392,0.236-0.947,0.25-0.947,0.25s1.451,0.231,1.44,1.606v1.508h-0.846
		v-1.436c0-0.319-0.154-0.918-0.988-1.232c-0.398-0.147-0.916-0.156-0.916-0.156h-1.881v2.824h-0.869v-6.444h3.361
		c0.635,0,2.144,0.096,2.211,1.552C61.426,21.981,61.071,22.21,60.81,22.369z M58.811,19.759h-2.139v2.61h1.786
		c0.847,0,1.975-0.095,1.975-1.269C60.433,19.759,59.234,19.759,58.811,19.759z M101.508,25.733l-1.034-2.586H97.77l-1.057,2.586
		H96.03l2.704-6.443h0.963l2.609,6.443H101.508z M99.219,20.13h-0.202l-0.987,2.43h2.186L99.219,20.13z M86.332,25.733h-1.701
		c-1.355,0-2.454-1.102-2.454-2.456v-1.702c0-1.355,1.099-2.454,2.454-2.454h1.701c1.357,0,2.455,1.099,2.455,2.454v1.702
		C88.787,24.632,87.689,25.733,86.332,25.733z M87.788,21.331c0-0.97-0.785-1.755-1.753-1.755H84.93
		c-0.968,0-1.754,0.785-1.754,1.755v2.19c0,0.97,0.786,1.755,1.754,1.755h1.105c0.968,0,1.753-0.785,1.753-1.755V21.331z
		 M74.2,25.733l-1.035-2.586h-2.702l-1.06,2.586h-0.681l2.703-6.443h0.965l2.608,6.443H74.2z M71.91,20.13h-0.203l-0.986,2.43h2.188
		L71.91,20.13z M108.133,21.548v-1.989h-0.743v-0.266h1.786v0.266h-0.746v1.989H108.133z M109.474,21.548v-2.255h0.448l0.533,1.597
		c0.049,0.148,0.086,0.26,0.108,0.334c0.026-0.082,0.065-0.203,0.12-0.361l0.54-1.569h0.401v2.255h-0.288V19.66l-0.655,1.888h-0.269
		l-0.653-1.92v1.92H109.474z"/>
	<path fill="#0070B7" d="M0,16.083v-3.235h20.918c2.676,0,4.846-2.163,4.846-4.83c0-2.669-2.17-4.833-4.846-4.833H0V0h24.385
		c4.596,0,4.605,4.612,4.605,4.621v19.731c0,4.639-4.595,4.637-4.59,4.637H0v-3.243h20.918c2.676,0,4.846-2.164,4.846-4.833
		c0-2.667-2.17-4.83-4.846-4.83H0z M0,9.571h20.959c0.892,0,1.613-0.722,1.613-1.611l0,0c0-0.89-0.722-1.611-1.613-1.611H0V9.571z
		 M0,22.524h20.959c0.892,0,1.613-0.722,1.613-1.611l0,0c0-0.888-0.722-1.61-1.613-1.61H0V22.524z"/>
</g>
</svg>
